<svg xmlns="http://www.w3.org/2000/svg" viewBox="140.138 129.138 930.725 1002.225" role="img" aria-labelledby="title" style="color:#f3f0e8">
  <title id="title">Carina high contrast symbol</title>
  <path fill="#f3f0e8" fill-rule="evenodd" stroke="#8edbd2" stroke-width="8" stroke-linejoin="round" d="M 468.527 1107.5 L 500.5 1104 L 525.5 1097.723 L 553.5 1086.969 L 582.5 1071 L 604.5 1054.891 L 631 1029.5 L 641.035 1017.5 L 657.289 993.5 L 674.5 974.242 L 693.5 959.535 L 716.5 948.199 L 744.5 940.074 L 764.5 938.184 L 780.75 938.5 L 816.5 944.25 L 856.5 959 L 879.5 964 L 908.5 965.258 L 928.5 963 L 949.5 957.035 L 963.5 951.145 L 978.5 943 L 994.129 931.5 L 1008.027 918.5 L 1017.082 907.5 L 1026.051 894.5 L 1036 874.5 L 1043.891 849.5 L 1047 824.5 L 1045 797.5 L 1042 784.5 L 1035.105 766.5 L 1021.891 743.5 L 1010.5 729.793 L 982.5 703.625 L 965.082 680.5 L 956.582 663.5 L 952 650.5 L 948.527 628.5 L 951.137 601.5 L 960.199 573.5 L 976.344 543.5 L 1000.965 509.5 L 1017 483.5 L 1027.645 459.5 L 1034 440.5 L 1040 414.5 L 1043 385.5 L 1042 357.5 L 1037 325.5 L 1029 299.5 L 1015 268.5 L 995.891 239.5 L 975.051 216.5 L 954.5 198.871 L 935.5 186 L 917.5 176.035 L 891.5 165.223 L 856.5 156 L 827.5 153 L 786.5 155 L 751.5 163 L 729.5 171 L 708.5 181 L 693.5 190 L 676.551 202.5 L 653.5 223.434 L 631.934 249.5 L 612.965 279.5 L 602.5 290.758 L 590.5 298.73 L 577.5 302.824 L 566.5 303.785 L 548.5 299.902 L 536.5 293.551 L 495.5 266 L 478.5 258 L 447.5 247 L 424.5 242 L 399.5 239.574 L 369.5 240 L 336.5 245 L 313.5 252 L 291.5 260.934 L 267.5 274.156 L 250.5 286 L 228.5 305.277 L 210.996 324.5 L 197.996 343.5 L 187 362.5 L 178 383.5 L 170 409.5 L 166 430.5 L 164 449.5 L 164 473.5 L 168.223 508.5 L 180.109 548.5 L 193 574.5 L 213.5 604.355 L 231.5 624.336 L 246.5 638 L 287.5 666.074 L 292.973 671.5 L 301.824 685.5 L 305.5 700.484 L 304.777 713.5 L 301.801 723.5 L 294.5 736.195 L 275 761.5 L 261 786.5 L 248 820.5 L 242.277 843.5 L 239 868.5 L 239 903.5 L 244.109 936.5 L 253 965.5 L 271 1002.5 L 290 1029.5 L 316.5 1056.145 L 339.5 1073.051 L 366.5 1087.805 L 399.5 1100 L 437.5 1107 L 467.5 1107.289 Z M 725.5 822.777 L 697.5 822.391 L 664.5 816.711 L 640.5 808.527 L 615.57 795.5 L 598.5 782.656 L 582.5 766.254 L 570.152 748.5 L 558.098 721.5 L 553.137 699.5 L 552.113 667.5 L 557.309 637.5 L 563.5 618.535 L 576.539 591.5 L 590.09 571.5 L 609.5 551.184 L 627.5 537.25 L 638.5 530.344 L 656.5 522.066 L 672.5 517.012 L 690.5 514.027 L 710.926 513.5 L 728.5 515.461 L 746.5 520.16 L 760.5 525.609 L 772.5 531.598 L 788.5 542.328 L 803.5 555.258 L 812.84 565.5 L 823.684 579.5 L 835.277 598.5 L 842.801 613.5 L 850.5 633.461 L 858.742 668.5 L 859.988 702.5 L 854.75 730.5 L 847.988 747.5 L 839.574 762.5 L 828.625 776.5 L 817.5 786.918 L 792.5 804 L 772.5 812.973 L 760.5 816.742 L 741.5 820.918 L 725.906 822.5 Z"/>
</svg>
