<svg xmlns="http://www.w3.org/2000/svg" viewBox="55.425 252.425 1704.15 395.15" role="img" aria-labelledby="title">
  <title id="title">Carina wordmark</title>
  <path fill="currentColor" fill-rule="evenodd" d="M 1719 572.5 L 1718.5 570 L 1710.5 565.855 L 1701.109 557.5 L 1690.281 540.5 L 1588 307.5 L 1585.5 305 L 1521.5 305 L 1520.945 307.5 L 1527.5 311.156 L 1532.805 317.5 L 1533.816 325.5 L 1529.891 339.5 L 1441.574 540.5 L 1431.984 556.5 L 1423.5 565 L 1414.5 570 L 1414 572.5 L 1485.07 572.5 L 1485.109 570.5 L 1480.5 567.945 L 1474.351 561.5 L 1472.398 553.5 L 1473.156 546.5 L 1499.5 484 L 1607.5 484 L 1609.844 486.5 L 1629.844 533.5 L 1634.742 549.5 L 1632.969 560.5 L 1628.5 565.754 L 1620.742 570.5 L 1620.672 572.5 L 1718.5 573 Z M 1591.5 460.531 L 1515.5 460.516 L 1510 459.5 L 1554.5 357.098 L 1598 458.5 L 1597.5 460.391 L 1592.5 460.496 Z M 1002.293 606.5 L 975.176 578.5 L 872.351 454.5 L 894.5 448 L 915.5 437 L 929 424.5 L 938.918 409.5 L 943 398.5 L 945 388.5 L 945 370.5 L 940 351.5 L 935 342.5 L 927 332.5 L 912.5 321 L 898.5 314 L 878.5 308 L 864.5 306 L 851.5 305 L 701.5 305.449 L 700.797 307.5 L 712.5 313 L 719.969 319.5 L 724.777 329.5 L 725.992 338.5 L 725.875 544.5 L 724.586 552.5 L 720.977 560.5 L 715.5 565.91 L 707.883 570.5 L 707.5 572.156 L 708.5 573 L 795.5 573 L 797 571.5 L 788.5 565.875 L 783.266 560.5 L 780.098 554.5 L 778.137 545.5 L 778.008 332.5 L 829.5 332.035 L 842.5 333 L 855.5 336 L 868.5 342 L 879.965 352.5 L 883.91 358.5 L 886.945 365.5 L 889 375.5 L 888.953 391.5 L 884.937 404.5 L 880.992 411.5 L 873.5 419.93 L 862.5 428 L 853.5 431.965 L 836.5 436 L 795.5 437 L 795 438.5 L 874.844 534.5 L 932.5 606 L 934.5 607 L 1001.5 607 Z M 1089.484 572.5 L 1089.5 570.625 L 1079.5 565 L 1074.144 559.5 L 1071.234 553.5 L 1069.203 542.5 L 1069 338.5 L 1070.258 328.5 L 1074.023 319.5 L 1079.387 313.5 L 1090 306.5 L 1087.5 305 L 996.5 305.449 L 996.5 308 L 1007.5 314.223 L 1012 319.5 L 1014.816 325.5 L 1016.805 338.5 L 1016.984 536.5 L 1016 548.5 L 1013 557.5 L 1005.5 565.902 L 996.273 571.5 L 997.5 573 L 1088.5 573 Z M 698.441 572.5 L 698.5 570.637 L 687.5 563.891 L 680.082 556.5 L 670.137 539.5 L 569 307.5 L 566.5 305 L 497.5 305.082 L 496.5 307.328 L 506.5 313.293 L 510.777 319.5 L 510.902 329.5 L 508.945 336.5 L 418.844 541.5 L 408.902 557.5 L 401.5 564.707 L 392.5 570 L 392 572.5 L 463.031 572.5 L 463.008 570.5 L 455.5 565.836 L 452 561.5 L 450.109 556.5 L 450.117 549.5 L 456 532.5 L 477.5 484 L 588.5 484 L 611.844 536.5 L 615.734 550.5 L 613.953 560.5 L 610.5 564.883 L 601 570.5 L 601.5 573 L 697.5 573 Z M 567.5 460.516 L 491.5 460.547 L 488 459.5 L 532.5 356.137 L 533.734 356.5 L 578.695 459.5 L 567.894 460.5 Z M 1386.387 572.5 L 1387 334.5 L 1388.156 327.5 L 1391.031 320.5 L 1397.5 313.137 L 1406.5 308 L 1406.629 305.5 L 1333.5 305 L 1332 306.5 L 1332.5 308 L 1339.5 311.195 L 1347.863 318.5 L 1352.902 331.5 L 1353.777 342.5 L 1353.5 486.734 L 1189.5 305 L 1122.598 305.5 L 1122.5 308 L 1129.5 311.258 L 1137.785 318.5 L 1141 324.5 L 1142.891 331.5 L 1143.496 431.5 L 1142.945 546.5 L 1140.777 554.5 L 1138 559.5 L 1130.5 566.742 L 1123.5 570 L 1123 572.5 L 1193.5 573 L 1195 571.5 L 1186.5 566 L 1181.023 560.5 L 1177.195 552.5 L 1176.016 546.5 L 1175.5 371.176 L 1360.5 572.426 L 1385.5 573 Z M 293.504 580.5 L 312.5 579 L 330.5 576 L 366.5 567 L 370 561.5 L 386 524.5 L 384.5 523.348 L 382.5 524 L 360.5 534.953 L 332.5 544.91 L 309.5 549.891 L 287.5 551.953 L 268.5 551.945 L 245.5 548.875 L 230.5 544.844 L 210.5 535.992 L 195.5 525.902 L 179.098 509.5 L 170.09 496.5 L 161.156 477.5 L 155.328 451.5 L 155 430.5 L 156.258 417.5 L 161.414 397.5 L 170.07 378.5 L 182.035 361.5 L 199.5 345 L 223.5 331.031 L 240.5 325.137 L 255.5 322.109 L 265.5 321 L 296.5 322.031 L 312.5 325.109 L 332.5 332 L 348.5 340.176 L 366.5 352 L 383 316.5 L 387 304.5 L 334.5 297 L 288.5 293 L 247.5 294 L 212.5 300 L 188.5 308 L 166.5 319 L 155.5 326.082 L 132 346.5 L 116 367.5 L 104 391.5 L 99 407.5 L 96 424.5 L 96.082 456.5 L 101.082 480.5 L 105 491.5 L 112 505.5 L 125 524.5 L 142.5 542 L 167.5 559 L 187.5 568 L 219.5 577 L 249.5 581 L 292.5 580.727 Z"/>
</svg>