<svg xmlns="http://www.w3.org/2000/svg" viewBox="336.092 290.092 603.816 680.343" role="img" aria-labelledby="title">
  <title id="title">Carina Display Alpha lowercase a</title>
  <path fill="currentColor" fill-rule="evenodd" d="M 552 960.5 L 585.5 958 L 618.5 951 L 650.5 940 L 675.5 928 L 718.5 899 L 745 874.5 L 764.5 852 L 769 901.5 L 779.5 943.75 L 930 942.5 L 929.891 936.5 L 906.5 918.965 L 887.16 897.5 L 878.184 880.5 L 872.215 857.5 L 870.965 506.5 L 865 453.5 L 851 411.5 L 837 386.5 L 813.5 359 L 785.5 337 L 759.5 323 L 733.5 313 L 696.5 304 L 659.5 300 L 618.5 300 L 578.5 305 L 532.5 318 L 490.5 338 L 453.5 363.156 L 417 397.5 L 402.965 479.5 L 409.5 482.129 L 436.191 445.5 L 458.5 420.582 L 486.5 395.223 L 516.5 375.031 L 544.5 362 L 582.5 352.031 L 620.5 350 L 647.5 353.184 L 676.5 362.059 L 700.5 375 L 725.973 397.5 L 739.824 416.5 L 751.949 441.5 L 761.711 477.5 L 764.625 502.5 L 765 546.5 L 671.5 552 L 590.5 565 L 525.5 583 L 464.5 610 L 421.5 639 L 393 666.5 L 381 681.5 L 358 723.5 L 350 749.5 L 346 774.5 L 346 810.5 L 354 848.5 L 369 879.5 L 392.5 908 L 412.5 924 L 432.5 936 L 470.5 951 L 509.5 959 L 551.5 960.527 Z M 594.5 903.527 L 559.5 901 L 529.5 891.996 L 500.5 873.973 L 481.184 851.5 L 467.113 820.5 L 461.344 783.5 L 463.207 750.5 L 472.258 716.5 L 486.191 689.5 L 506.5 664.645 L 526.5 647.145 L 557.5 628.191 L 585.5 616.129 L 622.5 605 L 664.5 597.051 L 709.5 592.004 L 765.34 590.5 L 765 760.5 L 758.574 792.5 L 748.887 813.5 L 729.957 840.5 L 710.5 859.98 L 693.5 872.98 L 668.5 887 L 641.5 897 L 617.5 901.973 L 594.848 903.5 Z"/>
</svg>