<svg xmlns="http://www.w3.org/2000/svg" viewBox="346.495 242.495 579.01 721.354" role="img" aria-labelledby="title">
  <title id="title">Carina Display Alpha lowercase b</title>
  <path fill="currentColor" fill-rule="evenodd" d="M 664.027 952.5 L 703.5 948 L 736.5 940 L 761.5 931 L 791.5 916 L 818.5 898 L 835.5 883.129 L 864 851.5 L 880 827.5 L 895 797.5 L 904 772.5 L 912 738.5 L 915 712.5 L 913 645.5 L 905 607.5 L 894 577.5 L 877 545.5 L 862 524.5 L 836.5 498 L 818.5 484 L 795.5 470 L 762.5 456 L 713.5 445 L 680.5 443.418 L 648.5 445 L 624.5 449 L 590.5 459 L 560.5 473 L 541.5 485 L 516.605 506.5 L 494.5 531.223 L 495.258 319.5 L 503.336 288.5 L 512.375 274.5 L 527 261.5 L 527 255.5 L 523.5 253 L 360.5 253 L 357 255.5 L 357 261.5 L 376.801 278.5 L 387.902 300.5 L 392.824 325.5 L 393.918 354.5 L 393.656 888.5 L 391.672 906.5 L 386.996 920.5 L 380.824 930.5 L 366 943.5 L 365 951.5 L 368.5 953.344 L 663.5 952.566 Z M 627.5 909.516 L 585.5 906.996 L 543.5 894.965 L 518.5 879 L 507.168 866.5 L 500.16 853.5 L 494.113 821.5 L 494.051 591.5 L 503.289 573.5 L 516.355 556.5 L 549.5 528.059 L 566.5 518.297 L 591.5 508.121 L 615.5 502.258 L 636.5 500.02 L 672.5 501.184 L 707.5 510.242 L 734.5 524.25 L 763.832 550.5 L 783.98 581.5 L 796.926 613.5 L 805.832 653.5 L 808.719 706.5 L 803.824 754.5 L 793.816 792.5 L 776.793 829.5 L 756.879 856.5 L 730.5 879.855 L 703.5 894.832 L 667.5 905.816 L 628.137 909.5 Z"/>
</svg>