<svg xmlns="http://www.w3.org/2000/svg" viewBox="316.239 286.102 622.612 670.252" role="img" aria-labelledby="title">
  <title id="title">Carina Display Alpha lowercase c</title>
  <path fill="currentColor" fill-rule="evenodd" d="M 705.488 946.5 L 738.5 944 L 787.5 936 L 838.5 923 L 880.5 909 L 918 811.5 L 915.5 809 L 857.5 840.824 L 811.5 860 L 769.5 872 L 721.5 878.934 L 671.5 879 L 631.5 872.965 L 587.5 857.965 L 554.5 839.879 L 524.5 816 L 496.289 783.5 L 474.258 745.5 L 459.145 705.5 L 449.199 657.5 L 447.242 613.5 L 452.242 565.5 L 466.113 517.5 L 490.234 469.5 L 516.082 435.5 L 551.5 403.035 L 577.5 386.098 L 601.5 374.074 L 635.5 362.02 L 671.5 355 L 715.5 353.012 L 749.5 356.059 L 785.5 364 L 820.5 377.309 L 849.5 393.281 L 887.5 422.234 L 929.09 320.5 L 849.5 308 L 762.5 298 L 703.5 295.863 L 646.5 298 L 572.5 311 L 535.5 323 L 501.5 338 L 473.5 354 L 446.5 373 L 428.5 388 L 398 419.5 L 379 444.5 L 363 470.5 L 340.031 523.5 L 332 553.5 L 326 591.5 L 326 656.5 L 331 690.5 L 338 718.5 L 348 747.5 L 362 777.5 L 393.109 824.5 L 439.5 871 L 489.5 904 L 527.5 921 L 560.5 932 L 594.5 940 L 629.5 945 L 704.5 946.594 Z"/>
</svg>