<svg xmlns="http://www.w3.org/2000/svg" viewBox="314.495 198.077 613.429 818.737" role="img" aria-labelledby="title">
  <title id="title">Carina Display Alpha lowercase d</title>
  <path fill="currentColor" fill-rule="evenodd" d="M 605.652 1004.5 L 633.5 1001 L 657.5 995 L 686.5 984 L 705.5 974 L 727.5 959 L 744.5 943.75 L 766 919.5 L 777.5 902.289 L 776.793 935.5 L 772.785 955.5 L 764.84 972.5 L 747 988.5 L 748.5 994 L 912.5 995 L 916 992.5 L 914.539 986.5 L 897.09 972.5 L 885.297 955.5 L 876.25 925.5 L 874.035 895.5 L 874.137 281.5 L 877.375 259.5 L 883.5 243.512 L 893.5 230.129 L 909.5 218.168 L 910.344 213.5 L 907.5 210 L 744.5 210 L 741.195 212.5 L 741 216.5 L 757.5 229.223 L 766.809 240.5 L 772.816 253.5 L 776.816 272.5 L 777.98 511.5 L 751.5 485.031 L 731.5 471 L 702.5 457 L 667.5 447 L 635.5 443 L 582.5 444 L 549.5 449 L 509.5 460 L 467.5 479 L 446.5 492 L 414.5 518 L 396 537.5 L 371 571.5 L 353 605.5 L 341 636.5 L 332 672.5 L 328 699.5 L 326.418 738.5 L 328 772.5 L 334.031 810.5 L 351.031 862.5 L 366.031 891.5 L 385 918.5 L 411.5 946 L 427.5 959 L 454.5 976 L 485.5 990 L 516.5 999 L 545.5 1004 L 604.5 1004.891 Z M 628.5 963.562 L 591.5 962.863 L 555.5 953.824 L 523.5 936.793 L 497.281 913.5 L 473.316 879.5 L 457.121 843.5 L 445.152 799.5 L 439.16 752.5 L 439.223 705.5 L 445.16 659.5 L 456.145 617.5 L 474.223 576.5 L 492.328 548.5 L 522.5 517.328 L 558.5 495.25 L 593.5 484.215 L 629.5 481.289 L 661.5 485.234 L 690.5 495.242 L 717.5 511.27 L 741.777 534.5 L 758.75 559.5 L 770.934 587.5 L 777.801 616.5 L 777.879 821.5 L 767.766 856.5 L 744.574 897.5 L 713.5 929.801 L 697.5 940.988 L 673.5 952.855 L 651.5 959.848 L 628.836 963.5 Z"/>
</svg>