<svg xmlns="http://www.w3.org/2000/svg" viewBox="335.04 269.04 586.92 683.92" role="img" aria-labelledby="title">
  <title id="title">Carina Display Alpha lowercase e</title>
  <path fill="currentColor" fill-rule="evenodd" d="M 670.152 942.5 L 713.5 939 L 771.5 926 L 830.5 904 L 873.5 882 L 907.098 796.5 L 904.5 796.301 L 862.5 825.926 L 828.5 844.91 L 793.5 859.824 L 751.5 871.879 L 715.5 877 L 669.5 876.918 L 628.5 869 L 598.5 857.637 L 566.5 838.84 L 538.5 814.816 L 517.176 789.5 L 496 755.5 L 480.207 719.5 L 467.199 674.5 L 460.223 629.5 L 458.031 580.5 L 911.5 580 L 912 534.5 L 903 473.5 L 887 426.5 L 868 391.5 L 855 373.5 L 820.5 338 L 777.5 309 L 734.5 291 L 680.5 280 L 621.5 279 L 563.5 289 L 510.5 310 L 476.5 331 L 457.5 346.031 L 417 388.5 L 396 418.5 L 377.965 452.5 L 365 483.5 L 356 512.5 L 345 577.5 L 345.031 646.5 L 355 705.5 L 365 737.5 L 382 776.5 L 413 825.5 L 452.5 868 L 499.5 902 L 548.5 925 L 602.5 939 L 644.5 943 L 669.5 942.539 Z M 787.5 537.879 L 460.5 537.894 L 469.191 485.5 L 484.426 439.5 L 506.297 398.5 L 531.5 367 L 551.5 349 L 574.5 334.234 L 599.5 324 L 623.5 319.035 L 647.5 318.191 L 675.5 322.168 L 700.5 331.223 L 719.5 342.223 L 736.5 356 L 760.809 383.5 L 773.5 404.461 L 784.863 430.5 L 793.777 464.5 L 796.855 493.5 L 794.84 523.5 L 787.879 537.5 Z"/>
</svg>