<svg xmlns="http://www.w3.org/2000/svg" viewBox="447.685 176.685 380.966 845.63" role="img" aria-labelledby="title">
  <title id="title">Carina Display Alpha lowercase f</title>
  <path fill="currentColor" fill-rule="evenodd" d="M 661 1009.5 L 663 1005.5 L 661.289 1001.5 L 637.5 989.816 L 624.215 975.5 L 617.098 958.5 L 614.066 937.5 L 614 489.5 L 731.5 488.363 L 735 485.5 L 752.223 451.5 L 749.5 449 L 614.5 449.109 L 614 347.5 L 618.035 310.5 L 630.152 271.5 L 648.336 243.5 L 660.5 232.223 L 673.5 224.223 L 699.5 217.043 L 725.5 220.098 L 743.5 230.09 L 763.742 252.5 L 781.391 289.5 L 786.5 291 L 792 281.5 L 816.336 215.5 L 794.5 203 L 759.5 192 L 734.5 189 L 701.5 190 L 667.5 197 L 645.5 205 L 610.5 225 L 587.84 244.5 L 572 261.5 L 558 281.5 L 546 304.5 L 538 326.5 L 530 367.5 L 529 448.5 L 487.5 450.25 L 460 485.5 L 463.5 488.609 L 529 489.5 L 528.801 935.5 L 524.949 961.5 L 517.973 977.5 L 505.5 991.887 L 490.5 1000.996 L 488.824 1006.5 L 491.5 1010 L 660.5 1010 Z"/>
</svg>