<svg xmlns="http://www.w3.org/2000/svg" viewBox="354.592 157.448 556.815 920.659" role="img" aria-labelledby="title">
  <title id="title">Carina Display Alpha lowercase g</title>
  <path fill="currentColor" fill-rule="evenodd" d="M 610.434 1064.5 L 672.5 1056 L 734.5 1036 L 761.5 1023 L 792.5 1004 L 831.082 971.5 L 848 953.5 L 865 930.5 L 887 884.5 L 897 838.5 L 898 808.5 L 895 780.5 L 883 742.5 L 866 715.5 L 841.5 693 L 816.5 679 L 781.5 668 L 747.5 663 L 591.5 657.973 L 557.5 653.988 L 537.5 647 L 525.145 636.5 L 519.191 622.5 L 520.059 606.5 L 532.035 585.5 L 545.5 573.004 L 559.5 564 L 602.5 570 L 640.5 570 L 686.5 562 L 716.5 551 L 737.5 540 L 761.5 523 L 785 500.5 L 802 478.5 L 819 446.5 L 830 410.5 L 834 381.5 L 833 337.5 L 826 302.5 L 817 277.5 L 795.5 240.645 L 827.5 246.113 L 865.5 259.043 L 869 255.5 L 888.184 195.5 L 883.5 191.109 L 856.5 198.98 L 823.5 204.988 L 763.5 208.957 L 733.5 191 L 688.5 176 L 638.5 170.855 L 613.5 171 L 580.5 175 L 552.5 182 L 526.5 192 L 505.5 203 L 481.5 220 L 460 240.5 L 445 259.5 L 432.301 281.5 L 421 308.5 L 412 351.5 L 411 390.5 L 415 421.5 L 423 448.5 L 437 477.5 L 457 504.5 L 489.5 533 L 518.793 550.5 L 482.5 578 L 460.031 598.5 L 444 617.5 L 436 632.5 L 433 643.5 L 434 662.5 L 445 684.5 L 463.5 703 L 494.684 722.5 L 468.5 738.109 L 437.5 761 L 414 783.5 L 398 803.5 L 381 833.5 L 374 852.5 L 369 875.5 L 368 905.5 L 374 938.5 L 389 971.5 L 409.473 997.5 L 442.5 1025 L 473.5 1042 L 517.5 1057 L 559.5 1064 L 609.5 1064.699 Z M 643.5 1020.527 L 612.5 1020.965 L 582.5 1017.871 L 546.5 1008.684 L 523.5 998.613 L 501.5 984.926 L 479.199 964.5 L 465.098 945.5 L 453.168 920.5 L 447.191 893.5 L 447.09 864.5 L 452.105 838.5 L 459.059 820.5 L 474.168 794.5 L 491 774.5 L 517.5 751.25 L 545.5 733 L 699.5 736.051 L 755.5 744 L 784.5 755.035 L 808.5 771.035 L 825 789.5 L 835.949 810.5 L 842.926 845.5 L 838.918 884.5 L 824 922.5 L 801.871 952.5 L 768.5 980.793 L 731.5 1000.703 L 691.5 1013.719 L 644.5 1020.109 Z M 631.5 540.504 L 603.5 538.742 L 580.5 531.793 L 560.5 520.902 L 540.309 503.5 L 521.184 477.5 L 509.234 451.5 L 500.176 418.5 L 496.215 386.5 L 496.215 347.5 L 500.27 314.5 L 508.223 286.5 L 521.121 259.5 L 537.035 238.5 L 559.5 219.242 L 583.5 207.09 L 607.5 201.043 L 639.5 201.02 L 660.5 206.16 L 681.5 216.258 L 705.949 236.5 L 724.824 261.5 L 737.855 288.5 L 746.988 320.5 L 750.902 350.5 L 750.918 394.5 L 746.758 426.5 L 736.879 459.5 L 721.785 488.5 L 701.5 512 L 682.5 525.793 L 659.5 535.871 L 632.5 540.406 Z"/>
</svg>