<svg xmlns="http://www.w3.org/2000/svg" viewBox="340.202 211.635 609.597 810.163" role="img" aria-labelledby="title">
  <title id="title">Carina Display Alpha lowercase h</title>
  <path fill="currentColor" fill-rule="evenodd" d="M 934.273 1009.5 L 938 1006.5 L 938 999.5 L 921 983.5 L 912.082 971.5 L 902.336 948.5 L 897.355 925.5 L 895.066 895.5 L 894 599.5 L 889 568.5 L 881 542.5 L 873 524.5 L 861 505.5 L 839.5 482 L 826.5 472 L 810.5 462 L 781.5 449.109 L 733.5 438 L 709.5 436 L 668.5 437 L 612.5 448 L 572.5 465 L 551.5 478 L 531.5 494 L 500.5 527.98 L 500.09 327.5 L 502.199 298.5 L 506.082 279.5 L 514.02 259.5 L 521.066 248.5 L 538 233.5 L 539 225.5 L 530.5 223.434 L 355.5 224 L 353.355 228.5 L 355.109 233.5 L 371.449 246.5 L 382.742 264.5 L 389.785 287.5 L 392.816 311.5 L 393 902.5 L 389.816 933.5 L 382.816 958.5 L 370.824 980.5 L 352 999.5 L 352.5 1007.25 L 359.5 1010 L 543.5 1010 L 547 1007.5 L 548 1000.5 L 527.5 983.539 L 515.168 966.5 L 506.027 941.5 L 501.328 913.5 L 500.082 576.5 L 511.375 558.5 L 530.184 536.5 L 547.5 521.207 L 564.5 510.105 L 585.5 500.105 L 608.5 493.297 L 652.5 489.129 L 677.5 491.344 L 697.5 496.059 L 717.5 504.242 L 738.5 518.199 L 758.832 539.5 L 768.719 555.5 L 778.758 579.5 L 784.664 604.5 L 787.613 644.5 L 786.766 912.5 L 782.656 939.5 L 775.582 961.5 L 763.711 981.5 L 745 998.5 L 744.109 1006.5 L 748.5 1010 L 933.5 1010 Z"/>
</svg>