<svg xmlns="http://www.w3.org/2000/svg" viewBox="523.008 168.008 206.984 892.121" role="img" aria-labelledby="title">
  <title id="title">Carina Display Alpha lowercase i</title>
  <path fill="currentColor" fill-rule="evenodd" d="M 633.742 325.5 L 652.5 322 L 665.5 316 L 687 297.5 L 700 272.5 L 702 243.5 L 697 225.5 L 690.805 214.5 L 681.5 203.035 L 667.5 192 L 640.5 182 L 622.5 181 L 608.5 183 L 583.5 194 L 563 214.5 L 553.035 237.5 L 552 263.5 L 562 290.5 L 578.5 309 L 604.5 322.723 L 621.5 326 L 633.5 325.566 Z M 716.375 1046.5 L 717 1040.5 L 697.5 1027.637 L 684.336 1008.5 L 677.363 983.5 L 675.223 949.5 L 676.223 498.5 L 680.281 474.5 L 686.387 459.5 L 696.363 446.5 L 714.5 435 L 716 430.5 L 711.5 427.957 L 540.5 428 L 538 433.5 L 557.5 446.426 L 568.703 461.5 L 574.684 478.5 L 577.777 499.5 L 578.434 950.5 L 575.848 987.5 L 568.691 1010.5 L 557.582 1026.5 L 537.5 1040 L 536 1044.5 L 540.5 1047.137 L 715.5 1047 Z"/>
</svg>