<svg xmlns="http://www.w3.org/2000/svg" viewBox="457.62 117.62 288.76 918.76" role="img" aria-labelledby="title">
  <title id="title">Carina Display Alpha lowercase j</title>
  <path fill="currentColor" fill-rule="evenodd" d="M 651.102 271.5 L 664.5 270 L 680.5 263.891 L 703 245.5 L 715.777 221.5 L 718 212.5 L 718 190.5 L 708 163.5 L 689.5 144 L 666.5 133.035 L 638.5 131 L 627.5 133 L 608.5 141 L 590 157.5 L 578 180.5 L 575.035 205.5 L 580 227.5 L 595.5 251 L 606.5 260 L 622.5 268 L 650.5 271.594 Z M 569.703 1022.5 L 591.5 1019 L 613.5 1011 L 633.5 999 L 649.297 985.5 L 663 970.5 L 677 949.5 L 688.965 922.5 L 695 900.5 L 700 861.5 L 700.375 433.5 L 703.273 410.5 L 709.09 393.5 L 716.059 382.5 L 731.437 368.5 L 733 363.5 L 728.5 359.73 L 561.5 359.926 L 558 364.5 L 559.5 368.234 L 577.5 381.066 L 589.91 398.5 L 595.855 418.5 L 597.664 438.5 L 597.887 854.5 L 595.742 892.5 L 589.785 920.5 L 578.879 943.5 L 564.5 956.727 L 546.5 961.539 L 528.5 958.949 L 510.5 948.895 L 493.152 929.5 L 481 903.5 L 473.5 902.109 L 471 905.5 L 471 997.5 L 484.5 1006.965 L 514.5 1018 L 541.5 1023 L 569.5 1022.582 Z"/>
</svg>