<svg xmlns="http://www.w3.org/2000/svg" viewBox="336.18 212.18 616.39 811.64" role="img" aria-labelledby="title">
  <title id="title">Carina Display Alpha lowercase k</title>
  <path fill="currentColor" fill-rule="evenodd" d="M 938.004 1011.5 L 940.75 1006.5 L 939.5 1002.582 L 914.5 985.625 L 894.215 964.5 L 646.5 657.605 L 820.5 485.051 L 858.5 452.168 L 886.418 435.5 L 888 428.5 L 885.5 426 L 704.5 426 L 702 428.5 L 702 433.5 L 714.863 444.5 L 719 456.5 L 714.957 475.5 L 704.777 492.5 L 665.594 535.5 L 501.5 702.305 L 502.316 318.5 L 506.145 292.5 L 513.066 270.5 L 524 251.5 L 543 234.5 L 544 226.5 L 540.5 224 L 348.5 225 L 348 234.5 L 366.75 248.5 L 378.816 266.5 L 386.887 290.5 L 390.855 318.5 L 391.488 888.5 L 389.84 924.5 L 382.75 955.5 L 367.793 983.5 L 348.195 1001.5 L 348 1010.5 L 545.5 1012 L 549 1009.5 L 548 1001.5 L 527.184 983.5 L 513.09 959.5 L 504.066 926.5 L 501.121 882.5 L 501.316 750.5 L 524.5 727.281 L 535.5 722.035 L 545.5 720.539 L 560.5 725 L 573.879 737.5 L 719.785 918.5 L 740.84 947.5 L 749.926 967.5 L 750.973 980.5 L 747.75 990.5 L 735.5 1003.418 L 736.5 1011 L 937.5 1012 Z"/>
</svg>