<svg xmlns="http://www.w3.org/2000/svg" viewBox="236.646 359.29 804.064 535.806" role="img" aria-labelledby="title">
  <title id="title">Carina Display Alpha lowercase m</title>
  <path fill="currentColor" fill-rule="evenodd" d="M 1028 882.5 L 1029 876.5 L 1016.223 864.5 L 1005.082 847.5 L 997.082 812.5 L 997 528.5 L 992.891 486.5 L 984 455.5 L 966 423.5 L 951.5 408 L 929.5 392 L 896.5 378 L 858.5 371 L 821.5 371 L 782.5 378 L 740.5 396 L 718.5 411.223 L 691 437.5 L 673.5 462 L 663 438.5 L 650 419.5 L 630.5 401 L 609.5 388 L 590.5 380 L 562.5 373 L 546.5 371 L 504.5 372 L 460.5 383 L 420.5 404 L 402.5 418 L 381 439.5 L 359.5 469.266 L 360 441.5 L 363.152 423.5 L 371.105 404.5 L 385 390.5 L 382.5 384 L 251.5 385 L 251.156 391.5 L 264 401.5 L 271.902 414.5 L 276.91 432.5 L 278.957 452.5 L 279 807.5 L 276.969 827.5 L 270.871 848.5 L 261.777 863.5 L 249.195 875.5 L 248.355 879.5 L 250.5 883.02 L 389.5 883.355 L 394 880.5 L 393 875.5 L 377 860.5 L 370 848.5 L 362.027 815.5 L 362 509.5 L 370.051 493.5 L 382.27 476.5 L 411.5 449.184 L 447.5 430 L 486.5 422 L 510.5 423 L 528.5 427.16 L 546.5 435.152 L 559.5 444.129 L 572.824 457.5 L 584.777 475.5 L 592.918 494.5 L 598.926 517.5 L 601.996 549.5 L 601.816 809.5 L 594.691 845.5 L 585.949 861.5 L 571 876.5 L 572.434 882.5 L 700.5 883.387 L 715.75 881.5 L 715.5 875.766 L 702.191 863.5 L 693.09 849.5 L 684.336 815.5 L 683.387 530.5 L 681.02 494.5 L 700.215 467.5 L 731.5 442.004 L 765.5 427.121 L 804.5 422 L 823.5 424.09 L 841.5 429.059 L 870.5 446.004 L 884.91 460.5 L 896.879 478.5 L 905.91 499.5 L 910.848 518.5 L 914.5 564.398 L 913.949 814.5 L 906.965 846.5 L 896.98 863.5 L 885 874.5 L 884 881.5 L 887.5 883.355 L 1027.5 883 Z"/>
</svg>