<svg xmlns="http://www.w3.org/2000/svg" viewBox="335.967 317.01 622.023 685.98" role="img" aria-labelledby="title">
  <title id="title">Carina Display Alpha lowercase n</title>
  <path fill="currentColor" fill-rule="evenodd" d="M 946 992.5 L 948 989.5 L 947 984.5 L 930.199 966.5 L 920.152 946.5 L 912.375 905.5 L 912 502.5 L 910 471.5 L 907 452.5 L 898 422.5 L 889 403.5 L 870 377.5 L 850.5 360 L 834.5 350 L 814.5 341 L 787.5 333 L 738.5 327 L 711.5 327 L 673.5 331 L 626.5 343 L 596.5 355 L 565.5 371.109 L 514.5 407 L 473.5 447 L 474.242 410.5 L 480.336 380.5 L 491.137 357.5 L 508 340.5 L 507.5 334.34 L 504.5 332.793 L 358.5 332.75 L 346 334.5 L 346.5 341.426 L 363.871 356.5 L 371.656 370.5 L 377.793 390.5 L 380.824 412.5 L 381.664 853.5 L 380.848 904.5 L 375.848 936.5 L 364.824 963.5 L 346 984.5 L 345.957 991.5 L 515.699 991.5 L 514.5 985.816 L 496.043 968.5 L 489.16 957.5 L 482.168 938.5 L 477.328 910.5 L 476.242 492.5 L 491.336 471.5 L 514.5 447.152 L 539.5 427.035 L 566.5 410.176 L 587.5 400 L 622.5 388 L 655.5 382 L 678.5 381 L 702.5 383 L 727.5 389.137 L 747.5 398 L 767.5 412.027 L 785.727 431.5 L 798.809 452.5 L 807.809 474.5 L 813.887 499.5 L 816.871 532.5 L 815.965 907.5 L 812.824 929.5 L 805.84 952.5 L 795.777 970.5 L 782 984.5 L 781 990.5 L 783.5 993 L 945.5 993 Z"/>
</svg>