<svg xmlns="http://www.w3.org/2000/svg" viewBox="321.963 302.932 619.105 622.675" role="img" aria-labelledby="title">
  <title id="title">Carina Display Alpha lowercase o</title>
  <path fill="currentColor" fill-rule="evenodd" d="M 641 916.5 L 665.5 915 L 700.5 909 L 757.5 890 L 783.5 877 L 814.5 857 L 853 822.5 L 888 776.5 L 912 727.5 L 923 690.5 L 929 659.5 L 932 601.5 L 928.965 563.5 L 923 532.5 L 904 476.5 L 876 428.5 L 860 408.5 L 837.5 386 L 791.5 353 L 759.5 337 L 729.5 326 L 673.5 314 L 608.5 312 L 569.5 317 L 539.5 324 L 487.5 344 L 440.5 373 L 402 408.5 L 385 429.5 L 369 454.5 L 355.031 482.5 L 344 513.5 L 333 567.5 L 331.031 635.5 L 334 667.5 L 340 698.5 L 358 750.5 L 384 796.5 L 404 821.5 L 423.5 840.965 L 448.5 861 L 473.5 877 L 519.5 898 L 577.5 913 L 602.5 916 L 640.5 916.539 Z M 656.5 868.672 L 619.5 868 L 583.5 856.863 L 552.5 837.809 L 525.059 811.5 L 500.074 776.5 L 480.25 735.5 L 466.297 692.5 L 457.234 643.5 L 455.105 585.5 L 458.25 548.5 L 468.215 502.5 L 484.5 460.512 L 506.031 424.5 L 532.5 395.145 L 562.5 374 L 593.5 362.082 L 631.5 358.16 L 669.5 365.258 L 702.5 382.191 L 732.988 409.5 L 758.766 444.5 L 778.719 483.5 L 794.816 530.5 L 804.848 583.5 L 807.848 636.5 L 803.801 688.5 L 793.793 733.5 L 776.785 776.5 L 752.656 813.5 L 723.5 841.988 L 689.5 860.84 L 657.262 868.5 Z"/>
</svg>