<svg xmlns="http://www.w3.org/2000/svg" viewBox="358.056 181.115 631.829 884.77" role="img" aria-labelledby="title">
  <title id="title">Carina Display Alpha lowercase p</title>
  <path fill="currentColor" fill-rule="evenodd" d="M 560.059 1052.5 L 562 1044.5 L 541.145 1026.5 L 531.035 1009.5 L 524.223 988.5 L 521.035 969.5 L 519.625 689.5 L 553.5 719 L 588.5 740 L 628.5 755 L 669.5 763 L 727.5 763.965 L 769.5 758 L 812.5 745 L 852.5 725 L 881.5 704 L 913 672.5 L 942 629.5 L 958 593.5 L 971 544.5 L 977 492.5 L 977 448.5 L 970 391.5 L 961 355.5 L 951 328.5 L 937 300.5 L 918.891 273.5 L 894.5 247 L 878.5 234 L 848.5 216 L 818.5 204 L 774.5 195 L 717.5 194 L 682.5 199.109 L 645.5 210 L 611.5 226 L 571.5 254 L 545.035 279.5 L 520.5 310.863 L 521.035 282.5 L 527.199 253.5 L 537.027 232.5 L 556 212.5 L 556 206.5 L 553.5 204.25 L 372.5 205 L 370.941 212.5 L 391.5 228.473 L 403.934 249.5 L 409.895 271.5 L 412.969 300.5 L 413 954.5 L 409.816 983.5 L 401.816 1009.5 L 392.895 1025.5 L 373.5 1043.766 L 372 1048.5 L 375.5 1053 L 559.5 1053 Z M 691.5 719.527 L 665.5 718.887 L 632.5 713 L 607.5 704 L 585.5 692 L 565.5 676.672 L 545.035 654.5 L 530.043 630.5 L 520 606.5 L 521.012 373.5 L 535.191 347.5 L 552.418 323.5 L 572.5 302.012 L 592.5 285.176 L 612.5 272.27 L 638.5 260.223 L 661.5 253.297 L 687.5 249.207 L 729.5 250.199 L 759.5 258.27 L 791.5 277.242 L 814.902 301.5 L 836.996 339.5 L 850 376.5 L 858.949 423.5 L 861.973 474.5 L 858.965 532.5 L 850.816 576.5 L 835.742 619.5 L 815.84 654.5 L 790.5 682.816 L 761.5 702.684 L 728.5 714.965 L 691.762 719.5 Z"/>
</svg>