<svg xmlns="http://www.w3.org/2000/svg" viewBox="355.195 220.195 570.61 810.61" role="img" aria-labelledby="title">
  <title id="title">Carina Display Alpha lowercase q</title>
  <path fill="currentColor" fill-rule="evenodd" d="M 721.625 1018.5 L 748.5 1009 L 790.5 999 L 849.5 990.004 L 910.5 985 L 914 981.5 L 912.5 976.605 L 892.168 962.5 L 883.223 948.5 L 875.258 922.5 L 871.098 886.5 L 871.051 342.5 L 875.191 305.5 L 886 248.5 L 880.5 246 L 828.5 262.824 L 773.5 272 L 766.5 271.965 L 737.5 255 L 712.5 245.035 L 680.5 237 L 650.5 233 L 607.5 232 L 572.5 235 L 530.5 244 L 503.5 254 L 463.5 277 L 433 303.5 L 403 342.5 L 384 381.5 L 373 419.5 L 367 466.5 L 368 525.5 L 379 583.5 L 391 615.5 L 402.156 637.5 L 422 666.5 L 437.672 683.5 L 459.5 703 L 488.5 722 L 506.5 731 L 540.5 743 L 571.5 749 L 598.5 750.539 L 624.5 750 L 656.5 745 L 686.5 736 L 715.5 723 L 764.894 690.5 L 764.785 887.5 L 762.758 912.5 L 756.613 938.5 L 746.832 958.5 L 729.5 976.766 L 706 990.5 L 714.355 1016.5 L 720.5 1019 Z M 635.5 706.539 L 607.5 705.996 L 580.5 699 L 555.5 686 L 532.5 666.516 L 509.137 635.5 L 493.027 602.5 L 483.234 573.5 L 473.309 524.5 L 470.121 484.5 L 471.281 437.5 L 478.223 394.5 L 490.336 356.5 L 507.258 324.5 L 525.5 302.551 L 548.5 284.316 L 575.5 272.207 L 610.5 266.426 L 636.5 268.309 L 667.5 278.289 L 695.5 296.215 L 721.766 323.5 L 741.863 356.5 L 756.703 396.5 L 764.719 436.5 L 767.562 488.5 L 764.637 541.5 L 756.637 587.5 L 740.777 630.5 L 720.887 661.5 L 698.5 682.965 L 669.5 699 L 636.5 706.25 Z"/>
</svg>