<svg xmlns="http://www.w3.org/2000/svg" viewBox="459.385 321.385 417.25 660.23" role="img" aria-labelledby="title">
  <title id="title">Carina Display Alpha lowercase r</title>
  <path fill="currentColor" fill-rule="evenodd" d="M 652.344 971.5 L 655 968.5 L 654.5 964.848 L 633.5 950.793 L 620.121 932.5 L 613 912.5 L 609.02 885.5 L 609.207 503.5 L 629.168 471.5 L 650.68 447.5 L 678.5 426.066 L 708.5 412.098 L 734.5 406.043 L 772.5 406.113 L 795.5 412.105 L 811.5 420.129 L 824.5 431 L 831.5 431 L 837.059 395.5 L 843.098 373.5 L 852.152 355.5 L 867.012 339.5 L 867.02 335.5 L 864.5 333 L 844.5 331 L 793.5 331.031 L 756.5 338 L 726.5 349 L 702.5 362 L 667.5 388 L 636 420.5 L 608.5 458 L 609.066 410.5 L 614.027 382.5 L 625.145 358.5 L 644 342.5 L 643.582 335.5 L 481.5 334.918 L 479 337.5 L 480.406 342.5 L 497.965 356.5 L 506.848 372.5 L 512 390.5 L 514.965 414.5 L 515 884.5 L 510.895 913.5 L 501.855 936.5 L 489.5 951.918 L 471.5 963 L 469 967.5 L 472.5 972 L 651.5 972 Z"/>
</svg>