<svg xmlns="http://www.w3.org/2000/svg" viewBox="393.815 271.815 513.483 699.37" role="img" aria-labelledby="title">
  <title id="title">Carina Display Alpha lowercase s</title>
  <path fill="currentColor" fill-rule="evenodd" d="M 677.668 960.5 L 725.5 954.965 L 779.5 939 L 820.5 917 L 837.5 904 L 858 883.5 L 882 845.5 L 893 813.5 L 897 788.5 L 897.113 762.5 L 891 724.5 L 876 689.5 L 856 661.5 L 834.5 640.156 L 803.5 617.32 L 770.5 598 L 728.5 578 L 596.5 524.957 L 567.5 509.98 L 545.5 494.887 L 524.168 472.5 L 514.145 453.5 L 509.281 427.5 L 512.137 403.5 L 519.273 386.5 L 532.066 369.5 L 548.5 356.004 L 567.5 346 L 587.5 339.098 L 614.5 334.098 L 668.5 334.012 L 716.5 345.031 L 757.5 366.027 L 790.758 396.5 L 821.5 444.051 L 860.012 312.5 L 781.5 295 L 699.5 284 L 619.5 282 L 567.5 288 L 521.5 301 L 487.5 318 L 458.793 340.5 L 432 372.5 L 416.25 405.5 L 408 444.5 L 409 488.5 L 418 523.5 L 429 545.5 L 443 564.5 L 461.5 583 L 488.5 603 L 543.5 632 L 678.5 690.363 L 720.5 713.207 L 748.5 733.242 L 772.719 758.5 L 785.691 782.5 L 790.766 808.5 L 787.766 835.5 L 780.855 852.5 L 769 868.5 L 753.5 881.816 L 730.5 893.941 L 704.5 902 L 679.5 905.98 L 653.5 906.785 L 620.5 902.895 L 591.5 894.934 L 564.5 883.824 L 516.5 854.863 L 496.5 837.902 L 469.25 809.5 L 432.5 759 L 422 801.5 L 404 905.5 L 466.5 930.891 L 541.5 951 L 616.5 961 L 676.5 960.699 Z"/>
</svg>