<svg xmlns="http://www.w3.org/2000/svg" viewBox="415.806 167.806 395.387 905.969" role="img" aria-labelledby="title">
  <title id="title">Carina Display Alpha lowercase t</title>
  <path fill="currentColor" fill-rule="evenodd" d="M 694.41 1060.5 L 727.5 1057 L 761.5 1046 L 786 1008.5 L 798 983.5 L 792.5 981 L 773.5 989.727 L 748.5 994.879 L 722.5 994.684 L 697.5 988.562 L 676.5 977.582 L 661.191 964.5 L 648.16 947.5 L 637.145 923.5 L 631.152 897.5 L 629 872.5 L 629 533.5 L 742.5 533.02 L 755.5 535 L 770.5 541.965 L 773 539.5 L 773 478.5 L 768.5 476 L 755.5 482.848 L 740.5 484.969 L 629 484.5 L 630.035 254.5 L 634.09 233.5 L 640.02 217.5 L 650.223 201.5 L 662.965 190.5 L 663.5 182.941 L 661.5 181 L 503.5 181 L 500.625 185.5 L 502 190.5 L 519 204.5 L 527.902 220.5 L 535.801 254.5 L 537 484.5 L 458.5 484.832 L 445.5 482.934 L 432.5 476 L 429.5 477 L 429 540.5 L 432.5 542 L 445.5 535.02 L 458.5 533 L 537 533.5 L 537 908.5 L 542 941.5 L 549 962.5 L 562 987.5 L 575 1005.5 L 600.5 1030 L 622.5 1044 L 646.5 1054 L 674.5 1060 L 693.5 1060.582 Z"/>
</svg>