<svg xmlns="http://www.w3.org/2000/svg" viewBox="312.58 299.58 632.84 646.84" role="img" aria-labelledby="title">
  <title id="title">Carina Display Alpha lowercase u</title>
  <path fill="currentColor" fill-rule="evenodd" d="M 606.324 936.5 L 657.5 928 L 687.5 917 L 706.5 907 L 728.5 892 L 750.496 872.5 L 784.5 831.191 L 784.684 922.5 L 786.5 926 L 932.5 926.336 L 936 923.5 L 934.281 917.5 L 912.344 900.5 L 902.309 884.5 L 895.105 858.5 L 893.625 833.5 L 894.16 382.5 L 897.223 362.5 L 904.418 343.5 L 915.449 329.5 L 931 318.5 L 932.16 311.5 L 929.5 309 L 740 310.5 L 740.5 318 L 759.5 328.234 L 771.926 341.5 L 779.824 358.5 L 783.777 377.5 L 783.703 739.5 L 775.656 765.5 L 760.656 796.5 L 745.582 817.5 L 720.5 840.918 L 696.5 854.957 L 674.5 863 L 649.5 867.91 L 620.5 868.996 L 594.5 866 L 574.5 860.98 L 550.5 850.645 L 529.5 836.863 L 508.043 815.5 L 497.176 799.5 L 486.258 776.5 L 479.258 752.5 L 475.168 716.5 L 476.191 379.5 L 479.082 362.5 L 486.09 343.5 L 498.5 328.105 L 512.5 318.09 L 514 312.5 L 510.5 309 L 325.5 309 L 322 312.5 L 323 317.5 L 340.5 327.184 L 354.91 342.5 L 361.5 356.395 L 365.863 374.5 L 367 731.5 L 373 781.5 L 388 825.5 L 406 855.5 L 422 874.5 L 441.5 892 L 468.5 910 L 506.5 926 L 540.5 934 L 568.5 937 L 605.5 936.609 Z"/>
</svg>