<svg xmlns="http://www.w3.org/2000/svg" viewBox="159.952 346.663 964.595 597.384" role="img" aria-labelledby="title">
  <title id="title">Carina Display Alpha lowercase w</title>
  <path fill="currentColor" fill-rule="evenodd" d="M 897.539 929.5 L 900 927.5 L 900 922.5 L 888.281 909.5 L 883.223 892.5 L 885.191 869.5 L 891.281 850.5 L 1061.074 430.5 L 1083.176 391.5 L 1096.5 378 L 1110.5 368.289 L 1109.5 361.25 L 947.5 360.793 L 943 363.5 L 945.5 370 L 969.5 383.082 L 982.801 399.5 L 988.785 420.5 L 987.793 444.5 L 977.672 480.5 L 868.5 795.434 L 761.152 474.5 L 754.043 446.5 L 752 416.5 L 755.035 399.5 L 764.012 383.5 L 786 367.5 L 783.5 360.894 L 561.5 360.801 L 557 363.5 L 559.5 370 L 582.5 382.074 L 598.672 401.5 L 605.887 425.5 L 604.934 458.5 L 595.957 491.5 L 492.605 792.5 L 376.074 478.5 L 366.074 444.5 L 364.004 417.5 L 367.242 399.5 L 376.09 383.5 L 395 367.5 L 394.539 362.5 L 390.5 360.711 L 176.5 361 L 174 364.5 L 175 368.5 L 193.5 380.043 L 204.965 391.5 L 222.918 423.5 L 294 599.5 L 403.941 861.5 L 408.902 879.5 L 408.973 897.5 L 403.848 910.5 L 393 922.5 L 394.5 929 L 523.5 930 L 528 926.5 L 527 921.5 L 519.344 913.5 L 514.059 901.5 L 513.02 883.5 L 516.09 868.5 L 641.5 512.121 L 779.672 870.5 L 782.766 885.5 L 781.75 898.5 L 775.918 911.5 L 765 922.5 L 765 927.5 L 768.5 930 L 896.5 930 Z"/>
</svg>