<svg xmlns="http://www.w3.org/2000/svg" viewBox="336.208 305.353 662.439 627.294" role="img" aria-labelledby="title">
  <title id="title">Carina Display Alpha lowercase x</title>
  <path fill="currentColor" fill-rule="evenodd" d="M 985.773 922.5 L 989 918.5 L 988 914.5 L 955.5 892.664 L 929.129 863.5 L 721.645 580.5 L 884.215 368.5 L 912.5 339.09 L 934.004 323.5 L 935 318.5 L 932.5 315 L 768.5 315 L 766 318.5 L 767.5 323.355 L 786.5 332.129 L 796.5 343.449 L 798.988 360.5 L 795.758 373.5 L 779.672 400.5 L 683.5 528.719 L 601.035 416.5 L 579.121 380.5 L 575 364.5 L 576.16 349.5 L 581.066 339.5 L 588.5 332 L 603 323.5 L 604 318.5 L 601.5 315 L 352.5 315 L 349.758 319.5 L 351.5 324.387 L 386.5 350.152 L 421.902 390.5 L 596 623.5 L 410.957 860.5 L 380.5 891.926 L 347.824 913.5 L 345.855 917.5 L 347.5 921.891 L 529.387 921.5 L 530 914.5 L 509.5 903.793 L 500.043 891.5 L 497.566 876.5 L 503.184 854.5 L 535.004 806.5 L 635.5 674.184 L 747.801 825.5 L 769.75 859.5 L 774.672 875.5 L 773.684 889.5 L 768 900.5 L 749.5 914.684 L 748.434 918.5 L 751.5 923 L 985.5 922.75 Z"/>
</svg>