<svg xmlns="http://www.w3.org/2000/svg" viewBox="353.859 264.75 558.391 772.5" role="img" aria-labelledby="title">
  <title id="title">Carina Display Alpha lowercase y</title>
  <path fill="currentColor" fill-rule="evenodd" d="M 576.66 1025.5 L 578 1020.5 L 570.328 1011.5 L 567.043 1001.5 L 568.027 982.5 L 580.035 941.5 L 596.051 902.5 L 842.02 346.5 L 854.035 324.5 L 866.168 308.5 L 880.5 295.234 L 899.5 284.891 L 901 278.5 L 897.5 276 L 766.5 276.031 L 760 278.5 L 761.758 284.5 L 779.949 296.5 L 785.832 307.5 L 787.965 327.5 L 784.625 350.5 L 761.645 415.5 L 666.5 648.84 L 533.152 336.5 L 530 319.5 L 532.176 302.5 L 539.461 292.5 L 554.5 283.551 L 555 277.5 L 366.605 277.5 L 365.109 280.5 L 366.832 284.5 L 388.5 295.074 L 403.895 308.5 L 423.809 338.5 L 612 758.5 L 558.574 880.5 L 541.75 912.5 L 519.75 946.5 L 504.98 964.5 L 480.5 987.75 L 450.5 1005.758 L 418.5 1015 L 415 1018.5 L 415 1022.5 L 418.5 1026 L 576.5 1025.66 Z"/>
</svg>