<svg xmlns="http://www.w3.org/2000/svg" viewBox="369.776 341.624 506.948 564.722" role="img" aria-labelledby="title">
  <title id="title">Carina Display Alpha lowercase z</title>
  <path fill="currentColor" fill-rule="evenodd" d="M 840.059 897.5 L 868.5 766 L 852.637 766.5 L 832.824 796.5 L 805.5 821.871 L 787.5 831.809 L 763.5 839.887 L 730.5 844.949 L 689.5 846.996 L 507 846.5 L 850 370.5 L 856.891 360.5 L 855 351.5 L 852.5 349.848 L 434.879 350.5 L 408 469.5 L 408.5 472.355 L 411.5 473 L 425.5 473.019 L 446.387 444.5 L 470.5 424.105 L 489.5 414.059 L 510.5 407.207 L 565.5 401.004 L 727.5 400.496 L 381 883.5 L 378 888.5 L 381 896.5 L 383.5 898.121 L 839.5 898.02 Z"/>
</svg>