<svg xmlns="http://www.w3.org/2000/svg" viewBox="289.93 131.93 444.14 760.14" role="img" aria-labelledby="title">
  <title id="title">Carina Display Alpha uppercase A</title>
  <path fill="currentColor" fill-rule="evenodd" d="M 721.406 880.5 L 723 874.5 L 708.168 856.5 L 697 834.5 L 683 786.5 L 618 484.5 L 609.035 449.5 L 608 438.5 L 590 362.5 L 589 351.5 L 585.191 340.5 L 580 310.5 L 547 166.5 L 545 150.5 L 540.5 143 L 446.5 143 L 444 149.5 L 458.949 167.5 L 463.973 181.5 L 464 214.5 L 461.605 229.5 L 337.957 793.5 L 323.848 838.5 L 314 857.5 L 301 872.5 L 301 880.5 L 397.5 881 L 399 879.5 L 398.609 873.5 L 388.027 860.5 L 383.113 847.5 L 381 836.5 L 381 814.5 L 388 773.5 L 392 761.5 L 418.5 636.551 L 570.5 636 L 602.934 778.5 L 607.926 810.5 L 606 846.5 L 601 858.5 L 588 873.5 L 589 880.5 L 720.5 881 Z M 552.5 570.605 L 435.5 571 L 433 568.5 L 494.5 284.539 L 556.941 565.5 L 556.785 569.5 L 553.5 570.488 Z"/>
</svg>