<svg xmlns="http://www.w3.org/2000/svg" viewBox="377.646 177.052 556.708 848.302" role="img" aria-labelledby="title">
  <title id="title">Carina Display Alpha uppercase B</title>
  <path fill="currentColor" fill-rule="evenodd" d="M 675.16 1012.5 L 713.5 1009 L 751.5 1000.965 L 785.5 989 L 809.5 977 L 832.5 962 L 867.965 928.5 L 889 898.5 L 905 864.5 L 916 827.5 L 922 784.5 L 920 721.5 L 907 669.5 L 890 633.5 L 870.891 606.5 L 855.074 589.5 L 836.5 573 L 813.5 557.035 L 767.5 535 L 718 521.5 L 763.5 502 L 785.5 487 L 810.891 461.5 L 827 434.5 L 836 409.5 L 841 379.5 L 840 329.5 L 831 291.5 L 813 257.5 L 786.5 230.109 L 751.5 209 L 715.5 197 L 668.5 190 L 396.5 189.406 L 393 194.5 L 410.965 209.5 L 420.934 224.5 L 426.934 243.5 L 428.988 261.5 L 429 935.5 L 424.895 962.5 L 417 981.5 L 409.969 991.5 L 391.691 1006.5 L 390 1010.5 L 392.5 1013 L 674.5 1012.609 Z M 609.5 506.551 L 526 505.5 L 526.5 236.152 L 628.5 237.121 L 668.5 245.289 L 691.5 256.16 L 710.5 271.027 L 724.941 289.5 L 734.777 311.5 L 741.801 348.5 L 740.91 386.5 L 733.887 419.5 L 719.84 449.5 L 702.5 470.766 L 674.5 490.816 L 641.5 502.777 L 610.238 506.5 Z M 644.5 970.574 L 583.5 970.594 L 526.074 964.5 L 527.5 548.461 L 640.5 550.113 L 676.5 557.082 L 711.5 570.043 L 747.5 593.059 L 774.684 620.5 L 795.957 654.5 L 809.871 691.5 L 818 738.5 L 818.965 772.5 L 816.941 800.5 L 807.895 843.5 L 788.816 887.5 L 762.656 921.5 L 732.5 944.848 L 712.5 954.949 L 687.5 963.703 L 645.5 970.488 Z"/>
</svg>