<svg xmlns="http://www.w3.org/2000/svg" viewBox="313.93 131.93 396.14 760.14" role="img" aria-labelledby="title">
  <title id="title">Carina Display Alpha uppercase C</title>
  <path fill="currentColor" fill-rule="evenodd" d="M 544.227 880.5 L 578.5 880 L 602.5 876 L 606.5 873.02 L 639.5 863 L 672.5 845 L 692 764.5 L 697 734.5 L 694.5 733 L 664.562 762.5 L 632.5 785.777 L 607.5 797.934 L 602.5 798 L 599.5 800.727 L 572.5 806 L 546.5 806 L 516.5 797.684 L 498.5 787.973 L 472.137 764.5 L 453 738.5 L 433 698.5 L 421.051 664.5 L 409.121 612.5 L 402.066 548.5 L 402 487.5 L 404 456.5 L 413 394.5 L 421 362.5 L 436 319.5 L 458.02 277.5 L 473.09 257.5 L 490.5 240 L 510.5 226.082 L 527.5 219 L 543.5 215 L 569.5 215.012 L 576.5 218 L 583.5 218 L 602.5 225.406 L 628.5 243 L 648.488 263.5 L 672.223 294.5 L 677 280.5 L 699 173.5 L 690.5 169 L 684.5 169 L 679.5 166 L 666.5 163.816 L 662.5 161 L 635.5 156 L 630.5 153 L 622.5 153 L 608.5 148 L 580.5 145.672 L 572.5 143 L 537.5 143 L 530.5 145.672 L 518.5 146 L 493.5 153 L 490.5 156 L 486.5 156 L 479.5 160.918 L 475.5 161 L 473.5 163.809 L 466.5 166 L 446.5 180.223 L 413 213.5 L 386 253.5 L 370 284.5 L 358 313.5 L 336.031 394.5 L 330 432.5 L 326 475.5 L 325 534.5 L 328 590.5 L 337 650.5 L 346 686.5 L 363 736.5 L 385 780.5 L 415 821.5 L 443.5 848 L 454.5 855 L 477.5 868 L 481.5 868 L 499.5 875.891 L 516.5 878.137 L 522.5 881 L 543.5 880.527 Z"/>
</svg>