<svg xmlns="http://www.w3.org/2000/svg" viewBox="291.306 206.696 728.388 802.998" role="img" aria-labelledby="title">
  <title id="title">Carina Display Alpha uppercase D</title>
  <path fill="currentColor" fill-rule="evenodd" d="M 653.488 997.5 L 704.5 994 L 753.5 984 L 796.5 969 L 830.5 952 L 868.5 926 L 901 896.5 L 932 859.5 L 959 816.5 L 979 772.5 L 992 732.5 L 1002 685.5 L 1008 625.5 L 1007 565.5 L 1001 517.5 L 990 469.5 L 973 422.5 L 952 381.5 L 932 351.5 L 915 330.5 L 885.5 301 L 864.5 284 L 826.5 260 L 799.5 247 L 762.5 234 L 718.5 224 L 672.5 219 L 307.5 218.391 L 303 222.5 L 304 226.5 L 325 243.5 L 336.855 262.5 L 343.742 286.5 L 346.574 314.5 L 346.809 884.5 L 344.793 920.5 L 336.949 951.5 L 326.855 969.5 L 304.5 988.879 L 303 994.5 L 307.5 998 L 652.5 997.582 Z M 601.5 943.562 L 474.113 942.5 L 475.5 276.316 L 601.5 276.297 L 639.5 279.309 L 689.5 291.168 L 737.5 314.027 L 759.5 329.191 L 782.5 349.199 L 801.816 370.5 L 820.766 396.5 L 847.855 449.5 L 859.777 484.5 L 867.926 518.5 L 873 551.5 L 876 596.5 L 875 646.5 L 870.965 683.5 L 864 720.5 L 854.848 752.5 L 840.895 788.5 L 823.91 820.5 L 805.949 846.5 L 785.5 869.777 L 761.5 891 L 734.5 908.832 L 705.5 922.996 L 673.5 933.777 L 636.5 941 L 602.5 943.488 Z"/>
</svg>