<svg xmlns="http://www.w3.org/2000/svg" viewBox="349.824 170.25 612.352 870.426" role="img" aria-labelledby="title">
  <title id="title">Carina Display Alpha uppercase E</title>
  <path fill="currentColor" fill-rule="evenodd" d="M 910.191 1027.5 L 914 1022.5 L 949.5 881.035 L 914.5 916.918 L 888.5 935.926 L 856.5 951.957 L 818.5 963.691 L 756.5 970.957 L 551.5 971.277 L 550.137 969.5 L 544.035 944.5 L 541.004 916.5 L 541 595.5 L 745.5 596.043 L 768.5 600 L 788.5 607.012 L 818.5 628 L 820.098 559.5 L 827.645 511.5 L 825.5 509 L 811.5 519 L 786.5 529.824 L 750.5 536.934 L 541.5 538 L 541 243.5 L 751.5 243.035 L 791.5 246.223 L 825.5 254.289 L 850.5 265.184 L 869.5 278.234 L 887.5 296 L 890 293.5 L 895.223 260.5 L 903.191 230.5 L 911.258 212.5 L 920.281 198.5 L 930 188.5 L 930 184.5 L 918.5 182.926 L 366.5 184 L 366 188.5 L 387.5 203.043 L 405.895 226.5 L 414 248.5 L 417.766 276.5 L 418 926.5 L 413.934 959.5 L 403 986.5 L 388.5 1004.918 L 362.871 1022.5 L 362.5 1026.387 L 364.5 1028 L 909.5 1028 Z"/>
</svg>