<svg xmlns="http://www.w3.org/2000/svg" viewBox="409.843 171.448 458.037 903.459" role="img" aria-labelledby="title">
  <title id="title">Carina Display Alpha uppercase F</title>
  <path fill="currentColor" fill-rule="evenodd" d="M 612.723 1061.5 L 616 1057.5 L 593 1037.5 L 582 1018.5 L 575.105 994.5 L 572.074 972.5 L 570.375 559.5 L 707.5 559 L 736.5 562.137 L 756.5 568.02 L 769.5 575.223 L 781.926 586.5 L 792 603.5 L 794.5 604 L 804.059 481.5 L 800.5 480.031 L 791 493.5 L 772.5 509.824 L 741.5 521.98 L 699.5 525.824 L 571.074 525.5 L 570.645 223.5 L 716.5 222.289 L 758.5 226.137 L 777.5 232.066 L 797.5 244.426 L 809.965 258.5 L 819 277.5 L 822.5 280.082 L 825 277.5 L 837.16 222.5 L 854.723 187.5 L 852.5 184.871 L 845.5 184.605 L 427.5 184.965 L 426.34 189.5 L 441.73 202.5 L 455 224.5 L 461.973 250.5 L 464.949 281.5 L 465 953.5 L 461.863 989.5 L 455 1016.5 L 443.855 1037.5 L 424.5 1055.355 L 423 1059.5 L 432.5 1061.75 L 612.5 1061.594 Z"/>
</svg>