<svg xmlns="http://www.w3.org/2000/svg" viewBox="215.572 171.572 838.856 853.383" role="img" aria-labelledby="title">
  <title id="title">Carina Display Alpha uppercase G</title>
  <path fill="currentColor" fill-rule="evenodd" d="M 711.848 1012.5 L 797.5 1005 L 953.5 977 L 1032 965.5 L 1012.129 945.5 L 1005 930.5 L 1001.09 912.5 L 1000.019 664.5 L 1002.098 639.5 L 1008.043 620.5 L 1018.426 606.5 L 1040.5 593 L 1042 588.5 L 702 588.5 L 703.5 592.66 L 746.5 608.035 L 794.5 632 L 844.5 632.375 L 852.5 636.375 L 857 643.5 L 860.965 658.5 L 862.539 684.5 L 862.582 899.5 L 860.848 908.5 L 855.5 913 L 796.5 929.973 L 744.5 938 L 683.5 938.996 L 644.5 934.957 L 599.5 924.871 L 548.5 904.926 L 502.5 876.91 L 468.5 847.742 L 430.113 801.5 L 402.043 751.5 L 380 686.5 L 370.02 621.5 L 369.012 580.5 L 371 547.5 L 383 483.5 L 393.105 452.5 L 407.395 420.5 L 424.176 390.5 L 442.027 365.5 L 466.5 338.215 L 492.5 315.09 L 517.5 297.281 L 547.496 280.5 L 579.5 267.207 L 609.5 258.344 L 642.5 252.176 L 683.5 249.184 L 722.5 250.207 L 758.5 255.223 L 789.5 263.328 L 820.5 275.355 L 854.5 294.152 L 877.5 311.137 L 894.84 327.5 L 917.5 356.461 L 966 221.5 L 966.699 218.5 L 962.5 217 L 930.5 211 L 847.5 197 L 777.5 188 L 707.5 184 L 639.5 186 L 594.5 191 L 548.5 200 L 494.5 216 L 457.5 231 L 415.5 253 L 383.5 274 L 352.5 299 L 326 325.5 L 298 360.5 L 274 399.5 L 257 435.5 L 244 472.5 L 236 504.5 L 230 545.5 L 228 574.5 L 229 625.5 L 235 671.5 L 242 702.5 L 260 754.5 L 276 787.5 L 301 827.5 L 318.109 849.5 L 343.5 876.777 L 376.5 906 L 412.5 932 L 447.5 953 L 491.5 974 L 529.5 988 L 573.5 1000 L 617.5 1008 L 657.5 1012 L 711.5 1012.527 Z"/>
</svg>