<svg xmlns="http://www.w3.org/2000/svg" viewBox="315.364 156.353 622.271 936.31" role="img" aria-labelledby="title">
  <title id="title">Carina Display Alpha uppercase H</title>
  <path fill="currentColor" fill-rule="evenodd" d="M 922.012 1078.5 L 924 1071.5 L 905.309 1054.5 L 894.281 1034.5 L 888.344 1008.5 L 886.16 980.5 L 886.074 285.5 L 888.145 242.5 L 893.113 217.5 L 902.309 198.5 L 924 177.5 L 924 172.5 L 921.5 170 L 757.5 170 L 753.223 174.5 L 754 178.5 L 767.406 189.5 L 778.5 204.437 L 784.832 219.5 L 788.816 241.5 L 790.691 276.5 L 789.5 558.406 L 463.5 558.473 L 462.066 280.5 L 464.215 239.5 L 468.215 218.5 L 475.191 202.5 L 485.328 189.5 L 498.5 178.344 L 499.406 173.5 L 495.5 169.988 L 330.594 171.5 L 329.488 178.5 L 346.742 193.5 L 357.5 211.355 L 362.719 229.5 L 365.75 259.5 L 366 981.5 L 363.605 1014.5 L 357.832 1036.5 L 346.664 1055.5 L 329.156 1071.5 L 329 1076.5 L 331.5 1079 L 341.5 1079.027 L 496.5 1079 L 499 1076.5 L 498.5 1070.691 L 483.5 1057.562 L 471.207 1038.5 L 466.344 1023.5 L 463.281 1001.5 L 462.5 612.016 L 789.5 611.395 L 790.504 922.5 L 788.832 1006.5 L 784.605 1029.5 L 777.902 1045.5 L 766.5 1060.406 L 754.5 1070.449 L 753 1075.5 L 756.5 1079 L 921.5 1079 Z"/>
</svg>