<svg xmlns="http://www.w3.org/2000/svg" viewBox="371.61 155.609 406.855 919.48" role="img" aria-labelledby="title">
  <title id="title">Carina Display Alpha uppercase J</title>
  <path fill="currentColor" fill-rule="evenodd" d="M 553.496 1061.5 L 585.5 1057 L 608.5 1049.891 L 635.5 1037 L 659.5 1020 L 678 1001.5 L 697 975.5 L 712 943.5 L 720 917.5 L 726 879.5 L 727.336 843.5 L 728.059 244.5 L 731.105 221.5 L 738.25 201.5 L 749 187.5 L 765.074 174.5 L 765 170.5 L 762.5 169 L 595.5 169.035 L 594 176.5 L 609.449 187.5 L 620.91 202.5 L 626.918 219.5 L 630 241.5 L 629.988 856.5 L 625.855 903.5 L 617.879 940.5 L 602.941 973.5 L 592.32 986.5 L 578.5 997.719 L 553.5 1006.895 L 534.5 1007.84 L 519.5 1005.766 L 486.5 991.832 L 457.289 967.5 L 428.074 929.5 L 401.5 878 L 385 884.5 L 390.355 1006.5 L 428.5 1033 L 462.5 1049 L 511.5 1061 L 552.5 1061.699 Z"/>
</svg>