<svg xmlns="http://www.w3.org/2000/svg" viewBox="337.907 171.634 683.186 899.041" role="img" aria-labelledby="title">
  <title id="title">Carina Display Alpha uppercase K</title>
  <path fill="currentColor" fill-rule="evenodd" d="M 1002.227 1057.5 L 1008 1056.5 L 1007.5 1051.727 L 985.5 1036 L 955 1000.5 L 634 514.5 L 845.344 250.5 L 880.5 215.168 L 917.215 190.5 L 917 185.5 L 769 185.5 L 768 190.5 L 776.5 197.375 L 781.793 205.5 L 783.973 220.5 L 779.703 238.5 L 766.848 262.5 L 540.887 557.5 L 504.5 598 L 505.25 265.5 L 508.25 245.5 L 515.012 224.5 L 526.16 206.5 L 541.5 192.328 L 542 187.5 L 537.5 184.727 L 355.5 184.727 L 352 187.5 L 352 191.5 L 371.855 209.5 L 383.75 231.5 L 389.84 257.5 L 391.711 284.5 L 391.996 937.5 L 389.926 978.5 L 383.918 1007.5 L 370.684 1032.5 L 351 1050.5 L 352.223 1056.5 L 534.5 1057.582 L 543.5 1057.02 L 546 1053.5 L 545 1049.5 L 527 1034.5 L 519.066 1023.5 L 511.242 1005.5 L 506.059 979.5 L 504 945.5 L 503.891 646.5 L 504 642.5 L 550.5 594.234 L 817.895 1000.5 L 824.902 1015.5 L 826.801 1029.5 L 823.832 1038.5 L 817.5 1045.988 L 808.223 1051.5 L 808 1056.5 L 1001.5 1057.527 Z"/>
</svg>