<svg xmlns="http://www.w3.org/2000/svg" viewBox="144.496 167.961 961.622 913.286" role="img" aria-labelledby="title">
  <title id="title">Carina Display Alpha uppercase M</title>
  <path fill="currentColor" fill-rule="evenodd" d="M 600.215 1066.5 L 787 665.5 L 939.5 330.289 L 938.957 980.5 L 935.855 1003.5 L 928.703 1026.5 L 918.871 1042.5 L 900.5 1057.719 L 900 1063.5 L 1092.113 1063.5 L 1091.723 1057.5 L 1071.234 1042.5 L 1059.031 1024.5 L 1052.16 1006.5 L 1048 976.5 L 1048.004 265.5 L 1052.074 236.5 L 1060.098 216.5 L 1072.5 201.059 L 1091.969 189.5 L 1092 183.5 L 1081.5 181.965 L 942 183.5 L 863 364.5 L 630.5 881.965 L 368 301.5 L 311.512 182.5 L 160.5 182 L 158.5 183.816 L 158.5 189.098 L 176.5 200 L 191.742 217.5 L 199.957 237.5 L 204 265.5 L 203.973 978.5 L 200.824 1001.5 L 194.539 1021.5 L 183.941 1039.5 L 165 1056.5 L 164 1063.5 L 296.5 1065 L 299 1062.5 L 297 1055.5 L 280.066 1040.5 L 269.207 1021.5 L 263.176 999.5 L 260.199 972.5 L 260.5 329.234 L 599.5 1067.242 Z"/>
</svg>