<svg xmlns="http://www.w3.org/2000/svg" viewBox="305.403 131.93 413.667 760.14" role="img" aria-labelledby="title">
  <title id="title">Carina Display Alpha uppercase N</title>
  <path fill="currentColor" fill-rule="evenodd" d="M 679 880.5 L 681 876.5 L 681 221.5 L 682.02 205.5 L 686 186.5 L 695.25 165.5 L 707.699 151.5 L 708 145.5 L 705.5 143 L 607.5 143 L 605 146.5 L 605 151.5 L 615 160.5 L 626.965 181.5 L 631 197.5 L 633.965 224.5 L 633.5 641 L 556.012 472.5 L 410 144.5 L 408.5 143 L 321.5 143 L 316.988 144.5 L 316.473 151.5 L 331.719 168.5 L 338 181.5 L 342 196.5 L 344.574 217.5 L 345 284.5 L 344.684 807.5 L 337.98 843.5 L 328 862.5 L 318 872.5 L 317 879.5 L 318.5 881 L 413.5 881 L 416.395 876.5 L 405 861.5 L 397 845.5 L 392 824.5 L 390.215 803.5 L 390.5 328 L 499 560.5 L 518 605.5 L 644 879.5 L 645.5 881 L 678.5 881 Z"/>
</svg>