<svg xmlns="http://www.w3.org/2000/svg" viewBox="216.638 150.638 823.723 917.501" role="img" aria-labelledby="title">
  <title id="title">Carina Display Alpha uppercase O</title>
  <path fill="currentColor" fill-rule="evenodd" d="M 660.535 1054.5 L 706.5 1050 L 744.5 1042 L 784.5 1029 L 827.5 1009 L 866.5 984 L 897.5 958 L 928 925.5 L 953 891.5 L 976.805 849.5 L 995 807.5 L 1009 763.5 L 1019 716.5 L 1026 654.5 L 1027 584.5 L 1024 538.5 L 1017 489.5 L 1008 449.5 L 992.965 403.5 L 971 355.5 L 953 325.5 L 926 289.5 L 893.5 256 L 842.5 218.156 L 802.5 197 L 774.5 186 L 732.5 174 L 690.5 167 L 650.5 164 L 594.5 165 L 544.5 171 L 501.5 181 L 461.5 195 L 430.5 210 L 396.5 231 L 370.5 251 L 342 278.5 L 314.031 312.5 L 292 346.5 L 274 381.5 L 261 413.5 L 248 455.5 L 234 532.5 L 230 614.5 L 233 674.5 L 239 719.5 L 248 760.5 L 262.031 804.5 L 277 839.5 L 293 869.5 L 317 905.5 L 334 926.5 L 359.5 953 L 386.5 976 L 416.5 997 L 459.5 1020 L 514.5 1040 L 582.5 1053 L 659.5 1054.777 Z M 639.5 1005.574 L 594.5 1002.84 L 570.5 996.605 L 547.5 986.926 L 528.5 975.793 L 504.5 956.785 L 473.25 921.5 L 456.316 895.5 L 440.035 864.5 L 419.176 810.5 L 403.137 746.5 L 393.066 666.5 L 392 575.5 L 398.105 507.5 L 410.137 444.5 L 421.051 406.5 L 434.168 371.5 L 458.16 323.5 L 476.09 296.5 L 495.09 273.5 L 515.5 254.105 L 537.5 238.191 L 558.5 227.121 L 580.5 219.234 L 605.5 214.098 L 639.5 213.004 L 679.5 220.066 L 700.5 228.191 L 723.5 241.184 L 747.5 260.051 L 765.664 278.5 L 783.711 301.5 L 800.801 328.5 L 814.855 355.5 L 830.957 394.5 L 844.926 439.5 L 852.957 474.5 L 862.996 552.5 L 865 599.5 L 864 657.5 L 856.965 730.5 L 839.855 807.5 L 813.809 874.5 L 796.863 904.5 L 779.941 928.5 L 753.5 957 L 739.5 968.801 L 714.5 984.84 L 689.5 995.871 L 663.5 1002.758 L 639.758 1005.5 Z"/>
</svg>