<svg xmlns="http://www.w3.org/2000/svg" viewBox="429.909 185.909 473.181 830.216" role="img" aria-labelledby="title">
  <title id="title">Carina Display Alpha uppercase P</title>
  <path fill="currentColor" fill-rule="evenodd" d="M 603 1003.5 L 604 998.5 L 584.113 983.5 L 574.02 966.5 L 568.043 944.5 L 566.012 922.5 L 566.035 255.5 L 672.5 255.199 L 699.5 259.363 L 727.5 270.098 L 752.5 287.223 L 775.934 314.5 L 791.832 348.5 L 798.895 382.5 L 799.863 415.5 L 793.879 456.5 L 783.879 484.5 L 764.918 515.5 L 748.5 532.855 L 730.5 546.742 L 691.5 565.785 L 638.5 578.711 L 568.5 582.758 L 567 586.5 L 569 589.5 L 603.5 628 L 638.5 628 L 672.5 625 L 730.5 612 L 757.5 602 L 785.5 588 L 808.5 573 L 830.5 554 L 853 527.5 L 866 506.5 L 883.844 460.5 L 891 417.5 L 891 379.5 L 886.844 350.5 L 873 306.5 L 861 284.5 L 847 265.5 L 828.5 247 L 806.5 231 L 763.5 211.25 L 726.5 202 L 690.5 198 L 443.98 198.5 L 443 204.5 L 457.5 213.035 L 471.691 231.5 L 477.832 249.5 L 481 273.5 L 481 928.5 L 477.785 951.5 L 470.895 971.5 L 460.879 985.5 L 442 1000.5 L 445.5 1004.035 L 602.5 1004 Z"/>
</svg>