<svg xmlns="http://www.w3.org/2000/svg" viewBox="265.695 154.695 719.11 913.61" role="img" aria-labelledby="title">
  <title id="title">Carina Display Alpha uppercase Q</title>
  <path fill="currentColor" fill-rule="evenodd" d="M 971.387 1054.5 L 971.5 1049 L 935.5 1026.965 L 908.051 1000.5 L 811.191 868.5 L 838.5 847 L 868 817.5 L 906 766.5 L 928 724.5 L 938 699.5 L 948 667.5 L 956 630.5 L 963 558.5 L 962 514.5 L 956 465.5 L 938 395.5 L 925 363.5 L 905 325.5 L 870 277.5 L 846.5 253 L 820.5 231 L 795.5 214.109 L 763.5 197 L 713.5 179 L 687.5 173 L 647.5 168 L 584.5 169 L 556.5 173 L 519.5 182 L 486.5 194 L 461.5 206 L 436.5 221.109 L 406.5 244 L 379 270.5 L 355 299.5 L 329.031 339.5 L 315 367.5 L 304 394.5 L 291 437.5 L 283 480.5 L 279 521.5 L 279 574.5 L 282 608.5 L 289 648.5 L 303 697.5 L 317 731.5 L 334 763.5 L 365 807.5 L 397.5 842 L 447.5 880 L 487.5 901 L 548.5 921 L 597.5 928 L 664.5 926 L 697.5 920 L 735.5 908.66 L 840.5 1055 L 970.5 1055 Z M 642.5 888.574 L 596.5 888 L 552.5 876.895 L 511.5 854.996 L 476.051 824.5 L 445.27 784.5 L 422.043 739.5 L 404 686.5 L 392.113 627.5 L 387.012 568.5 L 387.012 524.5 L 390 484.5 L 403.145 412.5 L 418.16 366.5 L 438.035 324.5 L 454.152 299.5 L 471.145 278.5 L 508.5 245.105 L 527.5 233.184 L 549.5 223.176 L 581.5 214 L 603.5 211.059 L 654.5 213.129 L 680.5 219.242 L 703.5 228.281 L 744.5 254.273 L 780.824 291.5 L 810.894 339.5 L 823.98 368.5 L 833.809 397.5 L 848.965 466.5 L 854 520.5 L 853.98 580.5 L 850.949 620.5 L 838.91 687.5 L 828.793 721.5 L 815.887 753.5 L 797.887 786.5 L 774.5 817.949 L 755.5 792.84 L 630.5 793 L 631.391 798.5 L 660.5 816.051 L 679.5 832.051 L 708.5 869.395 L 678.5 881.895 L 643.5 888.195 Z"/>
</svg>