<svg xmlns="http://www.w3.org/2000/svg" viewBox="316.93 131.93 390.14 760.14" role="img" aria-labelledby="title">
  <title id="title">Carina Display Alpha uppercase R</title>
  <path fill="currentColor" fill-rule="evenodd" d="M 695.426 880.5 L 696 875.5 L 685 857.5 L 662 808.5 L 538 509.5 L 542.5 504.316 L 564.5 493 L 590 466.5 L 607 435.5 L 619 399.5 L 626 354.5 L 626 295.5 L 620 254.5 L 606 213.5 L 587 182.5 L 569.5 165 L 544.5 150 L 512.5 143 L 330.5 143 L 328 145.5 L 328 149.5 L 341.848 162.5 L 352 180.5 L 356.895 200.5 L 358.824 225.5 L 358.516 727.5 L 356.996 748.5 L 352.895 766.5 L 345.832 780.5 L 337 790.5 L 336 795.5 L 337.5 798 L 443.5 798 L 445.449 794.5 L 429 767.5 L 423 735.5 L 423 210.5 L 482.5 209.844 L 501.5 212 L 516.5 219 L 533.988 235.5 L 546.855 259.5 L 550.758 271.5 L 557.793 315.5 L 557.637 354.5 L 553 385.5 L 548 403.5 L 539 423.5 L 526.918 441.5 L 513.5 453.879 L 500.5 460.988 L 483.5 465 L 444.5 465 L 443.109 470.5 L 540.902 704.5 L 610.223 877.5 L 613.5 881 L 694.5 881 Z"/>
</svg>