<svg xmlns="http://www.w3.org/2000/svg" viewBox="344.491 151.491 599.019 927.644" role="img" aria-labelledby="title">
  <title id="title">Carina Display Alpha uppercase S</title>
  <path fill="currentColor" fill-rule="evenodd" d="M 659.348 1065.5 L 685.5 1064 L 722.5 1058 L 771.5 1043 L 817.5 1020 L 858.5 989 L 892 950.5 L 905 929.5 L 916 905.5 L 923.891 880.5 L 929 852.5 L 930 807.5 L 922.891 767.5 L 906.777 725.5 L 881 685.5 L 849.5 652 L 815.5 625 L 771.5 597.035 L 598.5 509.719 L 544.5 476.848 L 520.5 456.223 L 500.035 431.5 L 488.16 408.5 L 480.27 378.5 L 479.375 348.5 L 484.152 320.5 L 493.199 297.5 L 511.176 270.5 L 531.5 251.199 L 555.5 236.09 L 583.5 225.258 L 614.5 219.09 L 651.5 218.02 L 679.5 221.019 L 711.5 229.121 L 743.5 243.215 L 767.5 259.168 L 788.5 278.355 L 805.895 299.5 L 826.5 334 L 846.074 266.5 L 858.043 235.5 L 872 207.5 L 871.527 204.5 L 744.5 178 L 682.5 168 L 622.5 165 L 576.5 169 L 528.5 180 L 482.5 199 L 460.5 212 L 435.5 231 L 404 264.5 L 390 285.5 L 379.109 307.5 L 368 345.5 L 365 370.5 L 365 398.5 L 372 440.5 L 385 472.5 L 405 503.5 L 437.5 537.965 L 464.5 560 L 533.5 604 L 648.5 664.234 L 702.5 695.242 L 742.5 723.105 L 769.848 747.5 L 798.785 785.5 L 812.742 819.5 L 818 848.5 L 817.887 877.5 L 813.691 901.5 L 801.895 931.5 L 785.562 954.5 L 766.5 971.879 L 737.5 988.672 L 707.5 998.711 L 676.5 1003.848 L 640.5 1004.801 L 595.5 999.766 L 566.5 992.594 L 531.5 978.711 L 502.5 961.863 L 478.5 942.926 L 452.051 914.5 L 434.105 888.5 L 420.074 862.5 L 403.5 823 L 374.816 955.5 L 367.664 977.5 L 358 997.5 L 470.5 1034.969 L 535.5 1053 L 600.5 1064 L 658.5 1065.625 Z"/>
</svg>