<svg xmlns="http://www.w3.org/2000/svg" viewBox="265.717 165.217 721.663 912.065" role="img" aria-labelledby="title">
  <title id="title">Carina Display Alpha uppercase T</title>
  <path fill="currentColor" fill-rule="evenodd" d="M 730 1063.5 L 731.395 1058.5 L 729.5 1054.957 L 708.5 1044.902 L 691.223 1026.5 L 682.191 1004.5 L 678.336 975.5 L 677.68 277.5 L 679.289 229.5 L 685.5 220.09 L 694.5 217.004 L 852.5 217 L 879.5 220.051 L 901.5 229.059 L 917.887 243.5 L 928.777 260.5 L 936.91 286.5 L 941.5 288 L 944 285.5 L 945.082 244.5 L 950.012 218.5 L 958.199 200.5 L 974.098 182.5 L 974 178.5 L 279.516 178.5 L 279 182.5 L 293.887 198.5 L 303.918 220.5 L 308 241.5 L 309.613 284.5 L 312.5 288 L 317 286.5 L 324 261.5 L 338.098 240.5 L 353.5 228.234 L 373.5 220.137 L 400.5 217 L 558.5 217 L 566.5 219 L 572.5 225.355 L 576 253.5 L 575.625 972.5 L 571.563 1003.5 L 561.703 1027.5 L 546.5 1043.895 L 524.863 1054.5 L 522 1061.5 L 523.5 1064 L 729.5 1064 Z"/>
</svg>