<svg xmlns="http://www.w3.org/2000/svg" viewBox="279.511 197.511 696.978 857.588" role="img" aria-labelledby="title">
  <title id="title">Carina Display Alpha uppercase U</title>
  <path fill="currentColor" fill-rule="evenodd" d="M 645.488 1042.5 L 698.5 1038 L 739.5 1029 L 778.5 1015 L 817.5 994 L 842.5 975 L 874 941.5 L 895 908.5 L 907 880.5 L 917 841.5 L 922 794.5 L 923.051 288.5 L 927.09 262.5 L 935 241.5 L 944.027 228.5 L 963.5 214 L 964 211.5 L 773.98 211.5 L 774.5 214 L 793.996 228.5 L 803.934 242.5 L 811.84 263.5 L 816 295.5 L 815.965 790.5 L 810.758 844.5 L 801.816 878.5 L 789.879 905.5 L 771.957 931.5 L 748.5 953.824 L 722.5 969.824 L 693.5 980.832 L 657.5 987.703 L 627.5 988.902 L 588.5 985.703 L 560.5 978.816 L 532.5 966.926 L 509.5 951.824 L 488.242 931.5 L 472.234 908.5 L 459.207 879.5 L 451.207 850.5 L 447.184 823.5 L 445.168 785.5 L 445.184 302.5 L 448.16 271.5 L 456.129 245.5 L 468.5 227.777 L 487.5 214 L 488.113 211.5 L 293.5 210 L 292 213.5 L 307.5 224 L 321.996 242.5 L 329.785 263.5 L 333.684 289.5 L 335 801.5 L 342 850.5 L 355 891.5 L 373 925.5 L 400 959.5 L 427.5 983.777 L 460.5 1005 L 498.5 1022 L 544.5 1035 L 594.5 1042 L 644.5 1042.609 Z"/>
</svg>