<svg xmlns="http://www.w3.org/2000/svg" viewBox="205.961 161.871 865.078 895.352" role="img" aria-labelledby="title">
  <title id="title">Carina Display Alpha uppercase V</title>
  <path fill="currentColor" fill-rule="evenodd" d="M 653 1043.5 L 981.027 288.5 L 998.098 253.5 L 1016.043 223.5 L 1039.5 197.004 L 1058 183.5 L 1058 176.5 L 1052.5 174.941 L 894.5 174.918 L 878 176.5 L 878 182.5 L 897.996 198.5 L 908 217.5 L 910.809 239.5 L 904.918 272.5 L 879.965 342.5 L 688.5 837.934 L 439.242 254.5 L 433.113 230.5 L 434.098 210.5 L 441.09 196.5 L 457.5 182.09 L 458 177.5 L 455.5 175 L 449.5 174.91 L 221.5 175 L 219 177.5 L 219.109 183.5 L 221.5 186 L 241.5 199.027 L 261.855 219.5 L 276.801 240.5 L 292.957 269.5 L 480 677.5 L 652.5 1044.184 Z"/>
</svg>