<svg xmlns="http://www.w3.org/2000/svg" viewBox="129.503 252.523 994.119 729.955" role="img" aria-labelledby="title">
  <title id="title">Carina Display Alpha uppercase W</title>
  <path fill="currentColor" fill-rule="evenodd" d="M 887.242 967.5 L 886.5 963 L 874.5 956.645 L 867 949.5 L 860.309 937.5 L 858 911.5 L 861.191 895.5 L 1052.027 339.5 L 1072.145 303.5 L 1089.5 285.191 L 1108.5 272.566 L 1109.144 267.5 L 971 267.5 L 972.5 273 L 992.84 285.5 L 1002.758 300.5 L 1006.195 320.5 L 1003.727 343.5 L 864.5 763.957 L 720.289 326.5 L 719.105 309.5 L 723.051 294.5 L 733.5 281.25 L 749 271.5 L 749 267.5 L 563.5 267.488 L 564.5 273 L 587.5 285.082 L 602.926 302.5 L 611.793 324.5 L 612.816 346.5 L 479.5 772.371 L 330.09 330.5 L 328.168 312.5 L 332.336 295.5 L 340.5 284.191 L 359.309 272.5 L 361 268.5 L 145.5 267 L 143.98 269.5 L 145.5 273 L 168.5 283.355 L 185.887 297.5 L 198.879 314.5 L 210.848 338.5 L 409.809 902.5 L 414.926 923.5 L 413.84 938.5 L 406.719 952.5 L 392.5 963 L 391.5 967.418 L 504 967.5 L 503.16 963.5 L 487.105 951.5 L 481.129 941.5 L 478.004 926.5 L 480.328 902.5 L 637.5 406.191 L 805.727 909.5 L 807.895 926.5 L 804.711 942.5 L 798.711 952.5 L 783.91 963.5 L 783 967.5 L 886.5 968 Z"/>
</svg>