<svg xmlns="http://www.w3.org/2000/svg" viewBox="251.77 239.27 805.46 769.46" role="img" aria-labelledby="title">
  <title id="title">Carina Display Alpha uppercase X</title>
  <path fill="currentColor" fill-rule="evenodd" d="M 1045 996.5 L 1045.5 990.918 L 1012.5 969.785 L 971.281 925.5 L 699.281 577.5 L 806.098 436.5 L 897.25 323.5 L 934.449 284.5 L 957.5 267.082 L 978.5 257.059 L 979.215 252.5 L 793.5 252 L 793.5 256.723 L 812.5 265.269 L 826 280.5 L 827.98 301.5 L 822.965 317.5 L 810.902 340.5 L 786.719 377.5 L 671.5 538.461 L 538.16 364.5 L 503.066 314.5 L 497.223 296.5 L 499.27 279.5 L 508.418 267.5 L 529.5 257 L 528.5 251 L 274.5 252 L 274.5 256.723 L 294.5 265.25 L 312.5 277.199 L 350.809 315.5 L 462.824 452.5 L 588 613.5 L 469.809 769.5 L 376.91 884.5 L 312.5 955.656 L 286.5 977.871 L 263.5 990.98 L 263.5 996.375 L 447.5 997 L 448.5 991.605 L 428.5 980.902 L 418.02 965.5 L 417.129 946.5 L 425.035 923.5 L 468.387 855.5 L 617.5 651.012 L 762.832 840.5 L 825 926.5 L 831.957 943.5 L 831.895 964.5 L 822.5 979.75 L 801.5 991.793 L 802.5 997 L 1044.5 997 Z"/>
</svg>