<svg xmlns="http://www.w3.org/2000/svg" viewBox="253.527 186.484 745.946 856.489" role="img" aria-labelledby="title">
  <title id="title">Carina Display Alpha uppercase Y</title>
  <path fill="currentColor" fill-rule="evenodd" d="M 728.621 1030.5 L 729.965 1024.5 L 709.5 1009.934 L 696.297 993.5 L 689.344 977.5 L 685.387 953.5 L 687.387 605.5 L 925.113 252.5 L 953.5 221 L 966.5 212.066 L 986.168 203.5 L 987 199.5 L 982.5 198.957 L 819 199.5 L 819.5 203.75 L 843.5 214.105 L 853.785 226.5 L 855.988 244.5 L 850.965 261.5 L 800.758 342.5 L 660.5 557 L 474.184 262.5 L 468.418 241.5 L 471.152 226.5 L 481.5 214.168 L 504.496 203.5 L 505.461 199.5 L 266 199.5 L 266.5 204 L 286.5 213 L 306.5 228.145 L 328.84 253.5 L 575.824 606.5 L 577.574 642.5 L 576.824 953.5 L 572.711 976.5 L 563.758 995.5 L 551.5 1009.824 L 530 1025.5 L 530 1029.5 L 727.5 1030.496 Z"/>
</svg>