<svg xmlns="http://www.w3.org/2000/svg" viewBox="273.74 158.74 750.52 910.52" role="img" aria-labelledby="title">
  <title id="title">Carina Display Alpha uppercase Z</title>
  <path fill="currentColor" fill-rule="evenodd" d="M 984.004 1055.5 L 986 1053.5 L 986 1046.5 L 977.281 1036.5 L 973.019 1027.5 L 971 1003.5 L 981 942.5 L 993 897.5 L 990.5 894.406 L 979.5 895.832 L 955.887 938.5 L 928.5 969.816 L 905.5 984.664 L 872.5 995.75 L 830.5 999.84 L 459.52 999.5 L 805.168 478.5 L 989.098 208.5 L 1011 180.5 L 1011 174.5 L 1007.5 172 L 310.719 173.5 L 309 180.5 L 316.801 191.5 L 320.996 203.5 L 321.965 227.5 L 313.934 271.5 L 301 311.5 L 303.5 313.129 L 316.363 312.5 L 339.027 277.5 L 364.5 253.098 L 392.5 238.121 L 423.5 230.113 L 461.5 227.258 L 844.5 227.426 L 510 716.5 L 309.758 1017.5 L 287 1047.5 L 287 1054.5 L 983.5 1056 Z"/>
</svg>